<svg shape-rendering="geometricPrecision" xmlns="http://www.w3.org/2000/svg"  class="qrcode" viewBox="0 0 29 29" preserveAspectRatio="xMidYMid" width="1024" height="1024">
<rect fill="#FFFFFF" width="100%" height="100%"/>
<path class="modules" fill="#000000" d="M11 2 m0 0h1v1h-1z M12 2 m0 0h1v1h-1z M13 2 m0 0h1v1h-1z M15 2 m0 0h1v1h-1z M16 2 m0 0h1v1h-1z M17 2 m0 0h1v1h-1z M11 3 m0 0h1v1h-1z M12 3 m0 0h1v1h-1z M13 3 m0 0h1v1h-1z M15 3 m0 0h1v1h-1z M16 3 m0 0h1v1h-1z M17 3 m0 0h1v1h-1z M18 3 m0 0h1v1h-1z M10 4 m0 0h1v1h-1z M15 4 m0 0h1v1h-1z M17 4 m0 0h1v1h-1z M10 5 m0 0h1v1h-1z M13 5 m0 0h1v1h-1z M16 5 m0 0h1v1h-1z M17 5 m0 0h1v1h-1z M10 6 m0 0h1v1h-1z M11 6 m0 0h1v1h-1z M13 6 m0 0h1v1h-1z M17 6 m0 0h1v1h-1z M18 6 m0 0h1v1h-1z M10 7 m0 0h1v1h-1z M11 7 m0 0h1v1h-1z M12 7 m0 0h1v1h-1z M13 7 m0 0h1v1h-1z M10 8 m0 0h1v1h-1z M12 8 m0 0h1v1h-1z M14 8 m0 0h1v1h-1z M16 8 m0 0h1v1h-1z M18 8 m0 0h1v1h-1z M10 9 m0 0h1v1h-1z M14 9 m0 0h1v1h-1z M16 9 m0 0h1v1h-1z M18 9 m0 0h1v1h-1z M2 10 m0 0h1v1h-1z M4 10 m0 0h1v1h-1z M5 10 m0 0h1v1h-1z M6 10 m0 0h1v1h-1z M7 10 m0 0h1v1h-1z M8 10 m0 0h1v1h-1z M11 10 m0 0h1v1h-1z M12 10 m0 0h1v1h-1z M14 10 m0 0h1v1h-1z M20 10 m0 0h1v1h-1z M21 10 m0 0h1v1h-1z M22 10 m0 0h1v1h-1z M23 10 m0 0h1v1h-1z M24 10 m0 0h1v1h-1z M2 11 m0 0h1v1h-1z M3 11 m0 0h1v1h-1z M5 11 m0 0h1v1h-1z M6 11 m0 0h1v1h-1z M7 11 m0 0h1v1h-1z M10 11 m0 0h1v1h-1z M11 11 m0 0h1v1h-1z M13 11 m0 0h1v1h-1z M14 11 m0 0h1v1h-1z M15 11 m0 0h1v1h-1z M16 11 m0 0h1v1h-1z M17 11 m0 0h1v1h-1z M19 11 m0 0h1v1h-1z M20 11 m0 0h1v1h-1z M21 11 m0 0h1v1h-1z M25 11 m0 0h1v1h-1z M2 12 m0 0h1v1h-1z M4 12 m0 0h1v1h-1z M8 12 m0 0h1v1h-1z M10 12 m0 0h1v1h-1z M12 12 m0 0h1v1h-1z M15 12 m0 0h1v1h-1z M16 12 m0 0h1v1h-1z M17 12 m0 0h1v1h-1z M18 12 m0 0h1v1h-1z M19 12 m0 0h1v1h-1z M20 12 m0 0h1v1h-1z M21 12 m0 0h1v1h-1z M22 12 m0 0h1v1h-1z M23 12 m0 0h1v1h-1z M25 12 m0 0h1v1h-1z M26 12 m0 0h1v1h-1z M2 13 m0 0h1v1h-1z M3 13 m0 0h1v1h-1z M4 13 m0 0h1v1h-1z M7 13 m0 0h1v1h-1z M9 13 m0 0h1v1h-1z M11 13 m0 0h1v1h-1z M12 13 m0 0h1v1h-1z M14 13 m0 0h1v1h-1z M15 13 m0 0h1v1h-1z M17 13 m0 0h1v1h-1z M21 13 m0 0h1v1h-1z M22 13 m0 0h1v1h-1z M2 14 m0 0h1v1h-1z M3 14 m0 0h1v1h-1z M4 14 m0 0h1v1h-1z M5 14 m0 0h1v1h-1z
M8 14 m0 0h1v1h-1z M11 14 m0 0h1v1h-1z M13 14 m0 0h1v1h-1z M14 14 m0 0h1v1h-1z M16 14 m0 0h1v1h-1z M18 14 m0 0h1v1h-1z M19 14 m0 0h1v1h-1z M20 14 m0 0h1v1h-1z M22 14 m0 0h1v1h-1z M23 14 m0 0h1v1h-1z M24 14 m0 0h1v1h-1z M26 14 m0 0h1v1h-1z M2 15 m0 0h1v1h-1z M11 15 m0 0h1v1h-1z M12 15 m0 0h1v1h-1z M17 15 m0 0h1v1h-1z M18 15 m0 0h1v1h-1z M24 15 m0 0h1v1h-1z M25 15 m0 0h1v1h-1z M2 16 m0 0h1v1h-1z M4 16 m0 0h1v1h-1z M8 16 m0 0h1v1h-1z M10 16 m0 0h1v1h-1z M11 16 m0 0h1v1h-1z M12 16 m0 0h1v1h-1z M13 16 m0 0h1v1h-1z M14 16 m0 0h1v1h-1z M17 16 m0 0h1v1h-1z M18 16 m0 0h1v1h-1z M19 16 m0 0h1v1h-1z M20 16 m0 0h1v1h-1z M21 16 m0 0h1v1h-1z M22 16 m0 0h1v1h-1z M24 16 m0 0h1v1h-1z M25 16 m0 0h1v1h-1z M26 16 m0 0h1v1h-1z M2 17 m0 0h1v1h-1z M5 17 m0 0h1v1h-1z M13 17 m0 0h1v1h-1z M16 17 m0 0h1v1h-1z M17 17 m0 0h1v1h-1z M19 17 m0 0h1v1h-1z M20 17 m0 0h1v1h-1z M21 17 m0 0h1v1h-1z M23 17 m0 0h1v1h-1z M25 17 m0 0h1v1h-1z M26 17 m0 0h1v1h-1z M2 18 m0 0h1v1h-1z M4 18 m0 0h1v1h-1z M6 18 m0 0h1v1h-1z M7 18 m0 0h1v1h-1z M8 18 m0 0h1v1h-1z M9 18 m0 0h1v1h-1z M10 18 m0 0h1v1h-1z M11 18 m0 0h1v1h-1z M12 18 m0 0h1v1h-1z M13 18 m0 0h1v1h-1z M17 18 m0 0h1v1h-1z M18 18 m0 0h1v1h-1z M19 18 m0 0h1v1h-1z M20 18 m0 0h1v1h-1z M21 18 m0 0h1v1h-1z M22 18 m0 0h1v1h-1z M23 18 m0 0h1v1h-1z M24 18 m0 0h1v1h-1z M26 18 m0 0h1v1h-1z M10 19 m0 0h1v1h-1z M14 19 m0 0h1v1h-1z M15 19 m0 0h1v1h-1z M16 19 m0 0h1v1h-1z M18 19 m0 0h1v1h-1z M22 19 m0 0h1v1h-1z M24 19 m0 0h1v1h-1z M25 19 m0 0h1v1h-1z M11 20 m0 0h1v1h-1z M12 20 m0 0h1v1h-1z M15 20 m0 0h1v1h-1z M16 20 m0 0h1v1h-1z M17 20 m0 0h1v1h-1z M18 20 m0 0h1v1h-1z M20 20 m0 0h1v1h-1z M22 20 m0 0h1v1h-1z M23 20 m0 0h1v1h-1z M24 20 m0 0h1v1h-1z M25 20 m0 0h1v1h-1z M26 20 m0 0h1v1h-1z M10 21 m0 0h1v1h-1z M12 21 m0 0h1v1h-1z M14 21 m0 0h1v1h-1z M15 21 m0 0h1v1h-1z M18 21 m0 0h1v1h-1z M22 21 m0 0h1v1h-1z M25 21 m0 0h1v1h-1z M10 22 m0 0h1v1h-1z M11 22 m0 0h1v1h-1z M14 22 m0 0h1v1h-1z M16 22 m0 0h1v1h-1z M17 22 m0 0h1v1h-1z M18 22 m0 0h1v1h-1z M19 22 m0 0h1v1h-1z
M20 22 m0 0h1v1h-1z M21 22 m0 0h1v1h-1z M22 22 m0 0h1v1h-1z M23 22 m0 0h1v1h-1z M24 22 m0 0h1v1h-1z M25 22 m0 0h1v1h-1z M10 23 m0 0h1v1h-1z M17 23 m0 0h1v1h-1z M18 23 m0 0h1v1h-1z M19 23 m0 0h1v1h-1z M20 23 m0 0h1v1h-1z M22 23 m0 0h1v1h-1z M24 23 m0 0h1v1h-1z M26 23 m0 0h1v1h-1z M10 24 m0 0h1v1h-1z M12 24 m0 0h1v1h-1z M13 24 m0 0h1v1h-1z M14 24 m0 0h1v1h-1z M17 24 m0 0h1v1h-1z M19 24 m0 0h1v1h-1z M21 24 m0 0h1v1h-1z M24 24 m0 0h1v1h-1z M26 24 m0 0h1v1h-1z M11 25 m0 0h1v1h-1z M12 25 m0 0h1v1h-1z M13 25 m0 0h1v1h-1z M16 25 m0 0h1v1h-1z M17 25 m0 0h1v1h-1z M20 25 m0 0h1v1h-1z M22 25 m0 0h1v1h-1z M26 25 m0 0h1v1h-1z M10 26 m0 0h1v1h-1z M11 26 m0 0h1v1h-1z M12 26 m0 0h1v1h-1z M13 26 m0 0h1v1h-1z M20 26 m0 0h1v1h-1z M24 26 m0 0h1v1h-1z M25 26 m0 0h1v1h-1z M26 26 m0 0h1v1h-1z"/>
<path class="outer" fill="#000000" d="M2 2 m0 0h7.02v7.02h-7.02zm1.17 1.17v4.68h4.68v-4.68z"/>
<path class="inner" fill="#000000" d="M2 2 m2 2h3v3h-3z"/>
<path class="outer" fill="#000000" d="M2 20 m0 0h7.02v7.02h-7.02zm1.17 1.17v4.68h4.68v-4.68z"/>
<path class="inner" fill="#000000" d="M2 20 m2 2h3v3h-3z"/>
<path class="outer" fill="#000000" d="M20 2 m0 0h7.02v7.02h-7.02zm1.17 1.17v4.68h4.68v-4.68z"/>
<path class="inner" fill="#000000" d="M20 2 m2 2h3v3h-3z"/>
</svg>
